<svg id="Layer_1" data-name="Layer 1" xmlns="http://www.w3.org/2000/svg" xmlns:xlink="http://www.w3.org/1999/xlink" viewBox="0 0 499 528"><defs><clipPath id="clip-path"><rect x="25" y="19" width="428" height="91.95" fill="none"/></clipPath></defs><rect width="499" height="528" fill="#042e60"/><path d="M354.89,222.18s-9.91.26-12.63-14.39-4.51-17.64-9.31-24.46-2.94-19,4.72-17.39,7.12,10.93,5.45,16.48,7.46-1.58,5.92,8.51-6.17,22.86,7.78,28.71" fill="none" stroke="#fff" stroke-linecap="round" stroke-linejoin="round" stroke-width="0.87"/><path d="M328.48,157c8.26-.4,9.19,8.93,9.19,8.93" fill="none" stroke="#fff" stroke-linecap="round" stroke-linejoin="round" stroke-width="0.87"/><path d="M354,224.23S342.06,224,339.81,212s-5.18-19-13.39-29.35-6.2-25.19,2.06-25.59" fill="none" stroke="#fff" stroke-linecap="round" stroke-linejoin="round" stroke-width="0.87"/><path d="M361,222.56a16.42,16.42,0,0,1,6.57-4" fill="none" stroke="#fff" stroke-linecap="round" stroke-linejoin="round" stroke-width="0.87"/><path d="M359.08,229.91a19.61,19.61,0,0,1,12.24-10.48" fill="none" stroke="#fff" stroke-linecap="round" stroke-linejoin="round" stroke-width="0.87"/><path d="M362.26,218a5.66,5.66,0,0,1,2.22-.67" fill="none" stroke="#fff" stroke-linecap="round" stroke-linejoin="round" stroke-width="0.87"/><path d="M369,227.68a3.42,3.42,0,0,1,1.51-1.35,13.09,13.09,0,0,1,3.68-1.33" fill="none" stroke="#fff" stroke-linecap="round" stroke-linejoin="round" stroke-width="0.87"/><path d="M372.77,228.53a6.06,6.06,0,0,1,2.74-.91" fill="none" stroke="#fff" stroke-linecap="round" stroke-linejoin="round" stroke-width="0.87"/><path d="M374.39,231.14a9.33,9.33,0,0,1,2.53-1.3" fill="none" stroke="#fff" stroke-linecap="round" stroke-linejoin="round" stroke-width="0.87"/><path d="M124.7,117.49a4.06,4.06,0,1,1-4.06-4.06A4.06,4.06,0,0,1,124.7,117.49Z" fill="none" stroke="#fff" stroke-linecap="round" stroke-linejoin="round" stroke-width="0.87"/><path d="M260.71,210a4.06,4.06,0,1,1-4.06-4.06A4.06,4.06,0,0,1,260.71,210Z" fill="none" stroke="#fff" stroke-linecap="round" stroke-linejoin="round" stroke-width="0.87"/><path d="M126.12,235.06a4.06,4.06,0,1,1-4.06-4.06A4.06,4.06,0,0,1,126.12,235.06Z" fill="none" stroke="#fff" stroke-linecap="round" stroke-linejoin="round" stroke-width="0.87"/><path d="M32.18,161.84a4.06,4.06,0,1,0-4.06-4.06A4.06,4.06,0,0,0,32.18,161.84Z" fill="none" stroke="#fff" stroke-linecap="round" stroke-linejoin="round" stroke-width="0.87"/><path d="M230.33,216.26a2.79,2.79,0,1,1-2.79-2.79A2.79,2.79,0,0,1,230.33,216.26Z" fill="#fff"/><path d="M152.58,243.79a2.79,2.79,0,1,1-2.79-2.79A2.8,2.8,0,0,1,152.58,243.79Z" fill="#fff"/><path d="M155.71,131.54a2.79,2.79,0,1,1-2.79-2.79A2.79,2.79,0,0,1,155.71,131.54Z" fill="#fff"/><path d="M452.66,153.79a2.79,2.79,0,1,1-2.79-2.79A2.79,2.79,0,0,1,452.66,153.79Z" fill="#fff"/><path d="M197.55,201.31S199.2,204,201.48,216l3.59.31A129.31,129.31,0,0,0,201.56,203Z" fill="none" stroke="#fff" stroke-linecap="round" stroke-linejoin="round" stroke-width="0.87"/><path d="M197.55,201.31l-2.68,2.92s1.69,1.78,4,13l2.59-1.29" fill="none" stroke="#fff" stroke-linecap="round" stroke-linejoin="round" stroke-width="0.87"/><path d="M198.9,217.24l3.58.62,2.59-1.6" fill="none" stroke="#fff" stroke-linecap="round" stroke-linejoin="round" stroke-width="0.87"/><path d="M158,157.36s2.65.68,11.32,6.82L170,161a83.16,83.16,0,0,0-8.46-5Z" fill="none" stroke="#fff" stroke-linecap="round" stroke-linejoin="round" stroke-width="0.87"/><path d="M158,157.36l.08,3.46s.7-.7,9,4.94l2.28-1.58" fill="none" stroke="#fff" stroke-linecap="round" stroke-linejoin="round" stroke-width="0.87"/><path d="M135,206.36s2.65.68,11.32,6.82L147,210a83.16,83.16,0,0,0-8.46-5Z" fill="none" stroke="#fff" stroke-linecap="round" stroke-linejoin="round" stroke-width="0.87"/><path d="M135,206.36l.08,3.46s.7-.7,9,4.94l2.28-1.58" fill="none" stroke="#fff" stroke-linecap="round" stroke-linejoin="round" stroke-width="0.87"/><path d="M268.6,146.13a4.07,4.07,0,1,0-4.07-4.06A4.06,4.06,0,0,0,268.6,146.13Z" fill="none" stroke="#fff" stroke-linecap="round" stroke-linejoin="round" stroke-width="0.87"/><path d="M241.05,134.91c-1.27-1.34-2.71-5-1.75-9.4C240.92,118.2,236,112,236,112s15.15,7.23,11.28,20.44" fill="none" stroke="#fff" stroke-linecap="round" stroke-linejoin="round" stroke-width="0.9"/><path d="M350.66,262.68a103.72,103.72,0,0,1-18.89,9l.25,3.44s12.27-3.59,18.08-7.61Z" fill="none" stroke="#fff" stroke-linecap="round" stroke-linejoin="round" stroke-width="0.86"/><path d="M350.66,262.68l-3.17-2.11a85.36,85.36,0,0,1-17.32,8.83l1.61,2.26" fill="none" stroke="#fff" stroke-linecap="round" stroke-linejoin="round" stroke-width="0.86"/><path d="M330.16,269.4l-.05,3.5,1.91,2.21" fill="none" stroke="#fff" stroke-linecap="round" stroke-linejoin="round" stroke-width="0.86"/><path d="M32,125.25c-3.24,2.67-6.26.29-6.54-1.47s.6-5.69,3.84-8.74c5.45-5.14,4.87-13,4.87-13S42.67,116.5,32,125.25Z" fill="none" stroke="#fff" stroke-linecap="round" stroke-linejoin="round" stroke-width="0.9"/><path d="M32.28,116.77s-7,7.19-5.91,15.27" fill="none" stroke="#fff" stroke-linecap="round" stroke-linejoin="round" stroke-width="0.9"/><rect x="41" y="139" width="384" height="380" fill="none"/><path d="M356,220.73s-6.39,6.81,1.8,16.28c9.15,10.57,21.83,4.05,23.78,2.42,0,0,5,3.42,9.58,3.08,0,0-6.66-2.75-7.8-6.68,0,0,1.34-13.24-10-18.83S356,220.73,356,220.73Z" fill="#fff"/><path d="M339.81,212s-2.39-8.12-10.09-8.94-6.05-7.74-1.26-7.32c0,0-4.13-3.25.25-5,0,0-5-1.93-1.49-7.12" fill="none" stroke="#fff" stroke-linecap="round" stroke-linejoin="round" stroke-width="0.87"/><path d="M366.1,227.52a9.1,9.1,0,0,1,2.59-3,16.12,16.12,0,0,1,4.11-2.17" fill="none" stroke="#fff" stroke-linecap="round" stroke-linejoin="round" stroke-width="0.87"/><path d="M379.88,184.94,374,188.15s-3-2-4.56,0,1.08,4.14,2.57,3.9c0,0-1.16,3.72,1.65,4.55s3.73-2.9,2.9-4.89l5.39-3.07S380.18,188.17,379.88,184.94Z" fill="#fff"/><path d="M380.5,186.93s1.58,3.67,6.5,2.17,10.17-1.23,13.4-2.36c6.13-2.15,12.11-9.39,7.32-15.47-5.22-6.63-14.5-5.44-20.5,2.88-4.91,6.8-5.8,6.86-6.71,8.28A4.32,4.32,0,0,0,380.5,186.93Z" fill="none" stroke="#fff" stroke-linecap="round" stroke-linejoin="round" stroke-width="0.9"/><path d="M396.2,184.94a1.18,1.18,0,1,1,1.17-1.18A1.18,1.18,0,0,1,396.2,184.94Z" fill="#fff"/><path d="M402.2,177a1.17,1.17,0,1,1,1.17-1.17A1.17,1.17,0,0,1,402.2,177Z" fill="#fff"/><path d="M402.38,182.44a.77.77,0,1,0-.77-.77A.77.77,0,0,0,402.38,182.44Z" fill="#fff"/><path d="M390.91,185.52a.59.59,0,1,0-.59-.58A.59.59,0,0,0,390.91,185.52Z" fill="#fff"/><path d="M302.2,200l4.38-5s3.48.84,4.27-1.57-2.43-3.51-3.75-2.77c0,0-.19-3.89-3.12-3.7s-2.5,4-1,5.59l-4,4.74S300.8,197,302.2,200Z" fill="#fff"/><path d="M300.93,198.29s-2.75-2.89-6.85.21-9.11,4.66-11.75,6.83c-5,4.14-8.14,13-1.54,17,7.19,4.41,15.48.1,18.25-9.78,2.27-8.07,3.07-8.44,3.44-10.09A4.35,4.35,0,0,0,300.93,198.29Z" fill="none" stroke="#fff" stroke-linecap="round" stroke-linejoin="round" stroke-width="0.9"/><path d="M286.89,205.58a1.17,1.17,0,1,1-.7,1.5A1.16,1.16,0,0,1,286.89,205.58Z" fill="#fff"/><path d="M284,215.06a1.17,1.17,0,1,1-.7,1.5A1.17,1.17,0,0,1,284,215.06Z" fill="#fff"/><path d="M282,210.06a.77.77,0,1,1-.46,1A.75.75,0,0,1,282,210.06Z" fill="#fff"/><path d="M291.64,203.21a.58.58,0,1,1-.34.75A.58.58,0,0,1,291.64,203.21Z" fill="#fff"/><path d="M444.53,181.13s-5.22-1.44-6.53,3-1.44,8.89-9.41,16.6-14.24,6.4-12.15,13.73,15,8.23,26.92-5.36,12.81-35.41-.52-36.72C442.84,172.37,446.62,176.17,444.53,181.13Z" fill="none" stroke="#fff" stroke-linecap="round" stroke-linejoin="round" stroke-width="0.9"/><path d="M442.83,172.37s-3.73-5.08-8.16-3.68c-4.94,1.56-5.41,4.77-4.77,9.47S428.31,191.78,423,196s-12.19,4-13.06,9.11,1.83,8.22,6.52,9.3" fill="none" stroke="#fff" stroke-linecap="round" stroke-linejoin="round" stroke-width="0.9"/><path d="M415.19,200.1a2.09,2.09,0,0,1,.85-3.55c2.88-1.28,6.57-3.34,8.48-7.88s.53-11.88,5.18-12.43" fill="none" stroke="#fff" stroke-linecap="round" stroke-linejoin="round" stroke-width="0.9"/><path d="M416.53,205c-1.52-.73-2.1-2.76-2.26-4.56a2.89,2.89,0,0,1,.19-1.58,1.91,1.91,0,0,1,1.94-.83c1.68.16,3.08,1.43,4.25,2.75,2,2.24,1.81,2.57,4,4.52a6.54,6.54,0,0,0,3.44,1.8,3.16,3.16,0,0,0,3.26-1.74,2.09,2.09,0,0,0,.11-1.55,3,3,0,0,0-.72-1c-2.1-2.14-2.32-2-4.41-4.18-1.64-1.67-3.38-3.57-3.61-6-.1-1.07.24-2.34,1.16-2.73a2.58,2.58,0,0,1,2.35.58c2.25,1.53,4.09,3.69,6.1,5.58a6.52,6.52,0,0,0,3.52,2c2.07.22,4-1.73,4.35-4a6.57,6.57,0,0,0-2.49-5.91c-1.63-1.27-3.66-1.7-5.54-2.43-1.16-.45-2.6-1-2.85-2.37-.59-3.07,2.14-3.55,3.85-3.81" fill="none" stroke="#fff" stroke-linecap="round" stroke-linejoin="round" stroke-width="2.23"/><path d="M279.12,176.23c7.62-2.32,13.42-5.47,12.95-7s-7-.92-14.67,1.41-13.42,5.47-12.95,7S271.49,178.56,279.12,176.23Z" fill="none" stroke="#fff" stroke-linecap="round" stroke-linejoin="round" stroke-width="0.73"/><path d="M296,168.35c.87,2.49-3.57,6.22-16,10s-18.55,2.61-19.42.12,3.73-5.78,16.12-9.58S295.08,165.86,296,168.35Z" fill="none" stroke="#fff" stroke-linecap="round" stroke-linejoin="round" stroke-width="0.73"/><path d="M236.24,172.92a106.89,106.89,0,0,1-9.57,19.54l2.43,2.65s7.68-10.86,9.81-17.9Z" fill="none" stroke="#fff" stroke-linecap="round" stroke-linejoin="round" stroke-width="0.87"/><path d="M236.25,172.92l-4,.34a88.63,88.63,0,0,1-8.4,18.41l2.78.8" fill="none" stroke="#fff" stroke-linecap="round" stroke-linejoin="round" stroke-width="0.87"/><path d="M223.89,191.66l2.22,2.88,3,.57" fill="none" stroke="#fff" stroke-linecap="round" stroke-linejoin="round" stroke-width="0.87"/><path d="M335.26,242.4c-1.18,4-5,3.76-6.22,2.47s-2.7-5-1.74-9.38c1.61-7.3-3.3-13.49-3.3-13.49S339.12,229.22,335.26,242.4Z" fill="none" stroke="#fff" stroke-linecap="round" stroke-linejoin="round" stroke-width="0.9"/><path d="M330.7,235.27s-1.74,9.87,3.69,15.92" fill="none" stroke="#fff" stroke-linecap="round" stroke-linejoin="round" stroke-width="0.9"/><path d="M213,119.9c1.78.14,3.13,1.12,3,2.91a5.9,5.9,0,0,1-.74,2,11.35,11.35,0,0,1-1.51,2.41,9.71,9.71,0,0,1-2.5,1.83,37.55,37.55,0,0,1-6.7,2.92c-1.2.38-1.62.38-2.29,1.39a8.88,8.88,0,0,1-2.13,2.15,15.5,15.5,0,0,1-9,3,14.79,14.79,0,0,1-2.31-.18c-.94-.14-1-.22-1.66.44a14.35,14.35,0,0,1-3.71,2.91,18.65,18.65,0,0,1-7.12,1.56,3.22,3.22,0,0,1-1.83-.28,2.43,2.43,0,0,1-.86-1A5.3,5.3,0,0,1,175,135.5s.9,7.13,19.84-1.28S213,119.9,213,119.9Z" fill="#fff"/><path d="M174.25,132s.61,7.71,6.15,6.66c7.14-1.36,31.1-8.84,32.48-18.64,0,0-6-15.83-25-7.72C187.9,112.32,172.89,119.37,174.25,132Z" fill="none" stroke="#fff" stroke-linecap="round" stroke-linejoin="round" stroke-width="0.9"/><path d="M176,143.48c-.08.47-.09.75.29,1,.77.57,1.81-.9,2.75-.68.6.14.79.84,1.08,1.37a1.87,1.87,0,0,0,2.51.83c1-.59,1-1.92.8-3,1.06-.87,2.57-.76,3.87-.51s3,1.87,4.27,1.32a1.26,1.26,0,0,0,.56-.41c.41-.58-.35-2.81.23-3.23.29-.22.7-.15,1-.22.83-.16,1.52-.91,1.1-1.61" fill="none" stroke="#fff" stroke-linecap="round" stroke-linejoin="round" stroke-width="0.9"/><path d="M200.5,135.61l.46.6a3.53,3.53,0,0,0,1.32,1.23,1.38,1.38,0,0,0,1.7-.4c.29-.45.22-1.1.62-1.46a1.28,1.28,0,0,1,.71-.26,3.12,3.12,0,0,1,2,.43c.49.3.88.75,1.37,1.06a1.65,1.65,0,0,0,1.68.16c.78-.45.78-1.54.59-2.38a3,3,0,0,1,.11-2.52c.69-.9,2.06-.64,3.1-.32a1.25,1.25,0,0,0,.66.07c.64-.18.62-1.09.41-1.69s-.39-1.43.18-1.78,1.13,0,1.58-.28.37-1,.13-1.49a4.1,4.1,0,0,0-1.78-1.88" fill="none" stroke="#fff" stroke-linecap="round" stroke-linejoin="round" stroke-width="0.9"/><path d="M177.09,144.56s-1.07,6,8.49,5.09,29.41-11.14,31.13-17.12c0,0,.83-3.06-.42-4.3" fill="none" stroke="#fff" stroke-linecap="round" stroke-linejoin="round" stroke-width="0.9"/><path d="M178.45,148.46c-.44.91-1.07,1.33-1.31,2.31s.23,2.2,1.21,2.25a3,3,0,0,0,1.33-.42,5.68,5.68,0,0,1,2.78-.6c1.29.1,2.42.87,3.72,1a4.15,4.15,0,0,0,3.07-1,7.77,7.77,0,0,1,1.74-1.47,4,4,0,0,1,1.46-.21c1.51,0,3,0,4.52-.06,1.05,0,2.36-.18,2.78-1.17a6.3,6.3,0,0,1,.28-.72c.36-.57,1.16-.55,1.82-.55a9.2,9.2,0,0,0,4.61-1.23c.71-.41,1.47-1.25,1.08-1.94-.13-.24-.4-.5-.24-.75a.45.45,0,0,1,.32-.19c2.41-.34,5.06.68,7.2-1.33a5.91,5.91,0,0,0,1-3.15,1.16,1.16,0,0,1,.55-.83c1.17-.94,2.66-1.7,3.19-3.1a2.63,2.63,0,0,0-.39-2.56,2.41,2.41,0,0,0-2.31-.88" fill="none" stroke="#fff" stroke-linecap="round" stroke-linejoin="round" stroke-width="0.9"/><path d="M194.81,157c7.12-1,14.67-4.18,20-10,1.88-2,3.91-4.55,4-7.23a6.32,6.32,0,0,0-.48-2.92" fill="none" stroke="#fff" stroke-linecap="round" stroke-linejoin="round" stroke-width="0.9"/><path d="M182,152s1.41,6.67,12.82,5" fill="none" stroke="#fff" stroke-linecap="round" stroke-linejoin="round" stroke-width="0.9"/><path d="M193.47,123a1.24,1.24,0,0,1-.13,1.76,1.26,1.26,0,0,1-1.77,0,1.29,1.29,0,0,1,1.9-1.73Z" fill="#fff"/><path d="M198.86,116.32a1.29,1.29,0,1,1-1.77,0A1.27,1.27,0,0,1,198.86,116.32Z" fill="#fff"/><path d="M186.27,120.65a1.28,1.28,0,1,1-1.76,0A1.24,1.24,0,0,1,186.27,120.65Z" fill="#fff"/><path d="M242.71,125.29s-1.74,9.88,3.7,16" fill="none" stroke="#fff" stroke-linecap="round" stroke-linejoin="round" stroke-width="0.9"/><path d="M299.83,125.91c-1.09,1.21-6.6-2.36-12.31-8s-9.43-11.11-8.34-12.32,6.61,2.36,12.31,8S300.92,124.71,299.83,125.91Z" fill="none" stroke="#fff" stroke-linecap="round" stroke-linejoin="round" stroke-width="0.74"/><path d="M302.42,128.93c-1.78,1.95-7.19-.17-16.45-9.26s-11.15-15.09-9.37-17,6.87.53,16.13,9.62S304.19,127,302.42,128.93Z" fill="none" stroke="#fff" stroke-linecap="round" stroke-linejoin="round" stroke-width="0.74"/><path d="M417.53,68.1a102.38,102.38,0,0,1-7.46,19.53L412.62,90s6.4-11.07,7.82-18Z" fill="none" stroke="#fff" stroke-linecap="round" stroke-linejoin="round" stroke-width="0.86"/><path d="M417.53,68.1l-3.75.66a85.35,85.35,0,0,1-6.43,18.35l2.72.52" fill="none" stroke="#fff" stroke-linecap="round" stroke-linejoin="round" stroke-width="0.86"/><path d="M407.35,87.11l2.38,2.56,2.9.29" fill="none" stroke="#fff" stroke-linecap="round" stroke-linejoin="round" stroke-width="0.86"/><path d="M449.79,102.94a103.13,103.13,0,0,1-20.9.68l-1.16,3.25s12.69,1.62,19.62.26Z" fill="none" stroke="#fff" stroke-linecap="round" stroke-linejoin="round" stroke-width="0.86"/><path d="M449.79,102.94l-2.06-3.2a86.17,86.17,0,0,1-19.41,1.16l.57,2.72" fill="none" stroke="#fff" stroke-linecap="round" stroke-linejoin="round" stroke-width="0.86"/><path d="M428.31,100.9l-1.44,3.18.86,2.79" fill="none" stroke="#fff" stroke-linecap="round" stroke-linejoin="round" stroke-width="0.86"/><path d="M442.1,66s-1.52,2.6-10.66,9.94l1.35,3.17a123.32,123.32,0,0,0,9.67-8.94Z" fill="none" stroke="#fff" stroke-linecap="round" stroke-linejoin="round" stroke-width="0.86"/><path d="M442.1,66l-3.69-1s-.76,2.24-9.23,9.29l2.26,1.61" fill="none" stroke="#fff" stroke-linecap="round" stroke-linejoin="round" stroke-width="0.86"/><path d="M429.18,74.28l1.1,3.33,2.52,1.46" fill="none" stroke="#fff" stroke-linecap="round" stroke-linejoin="round" stroke-width="0.86"/><path d="M450.15,134.92s-1.73-2.47-4.56-13.83l-3.46-.1a124.14,124.14,0,0,0,4.09,12.53Z" fill="none" stroke="#fff" stroke-linecap="round" stroke-linejoin="round" stroke-width="0.86"/><path d="M450.15,134.92l2.42-2.95s-1.73-1.62-4.58-12.26l-2.41,1.38" fill="none" stroke="#fff" stroke-linecap="round" stroke-linejoin="round" stroke-width="0.86"/><path d="M448,119.7l-3.47-.39L442.13,121" fill="none" stroke="#fff" stroke-linecap="round" stroke-linejoin="round" stroke-width="0.86"/><path d="M393.62,93.32s-5.57,17.25-20.7,38.56l-4.93-5,14.8-35.3Z" fill="none" stroke="#fff" stroke-linecap="round" stroke-linejoin="round" stroke-width="0.86"/><path d="M393.62,93.32l5.15,5.32s-3.33,8.87,2.39,13.09,9.33-2,9.33-2l1.67,2.46L389,137.71l-16.05-5.83" fill="none" stroke="#fff" stroke-linecap="round" stroke-linejoin="round" stroke-width="0.86"/><path d="M396.39,96.19,402,85.9l3.14,1.7-6.4,11Z" fill="none" stroke="#fff" stroke-linecap="round" stroke-linejoin="round" stroke-width="0.86"/><path d="M393.11,79.37,389.06,92.6l-4.66-.74,3.48-10.62Z" fill="none" stroke="#fff" stroke-linecap="round" stroke-linejoin="round" stroke-width="0.86"/><path d="M393.11,79.37l2.19,1.85-4,11.73" fill="none" stroke="#fff" stroke-linecap="round" stroke-linejoin="round" stroke-width="0.86"/><path d="M395.3,81.22l1.92-7.58,4.94-.14a48.48,48.48,0,0,1-3.49,13.84" fill="none" stroke="#fff" stroke-linecap="round" stroke-linejoin="round" stroke-width="0.86"/><path d="M402.16,73.49l2.15,2.25A27,27,0,0,1,402,85.9l-3.36,1.43-3.91,7.19" fill="none" stroke="#fff" stroke-linecap="round" stroke-linejoin="round" stroke-width="0.86"/><path d="M402.52,92.19c.05-.09,3.07,1,3.07,1l-7.52,13.72" fill="none" stroke="#fff" stroke-linecap="round" stroke-linejoin="round" stroke-width="0.86"/><path d="M405.59,93.16l.25,4.51-6.55,12.12" fill="none" stroke="#fff" stroke-linecap="round" stroke-linejoin="round" stroke-width="0.86"/><path d="M401.92,112.25l10.52-15.32s-2.9-1.37-3-1.28l-10,13.87" fill="none" stroke="#fff" stroke-linecap="round" stroke-linejoin="round" stroke-width="0.86"/><path d="M412.43,96.93l-.2,4.51-7.73,11.39" fill="none" stroke="#fff" stroke-linecap="round" stroke-linejoin="round" stroke-width="0.86"/><path d="M410.48,109.73l3.38-4-2.67-2.25" fill="none" stroke="#fff" stroke-linecap="round" stroke-linejoin="round" stroke-width="0.86"/><path d="M395.65,124.93c3.18-4.81,3.79-10,1.37-11.61s-7,1-10.14,5.83-3.79,10-1.37,11.62S392.47,129.75,395.65,124.93Z" fill="#fff"/><path d="M159.87,183.66s-.28,1.47,1.62,4,3,4.57,4.93,3.35-2.07-2.5-2.93-7.2S159.8,180.74,159.87,183.66Z" fill="#fff"/><path d="M194.57,189.61s1.43-.45,2.75-3.31,2.59-4.82.6-5.93-1.21,3-4.94,6S192,191.06,194.57,189.61Z" fill="#fff"/><path d="M173.89,198.44a14.35,14.35,0,0,1-15.78-8.37,15.64,15.64,0,0,1-1.11-3.9c-1.38-9-14.36-9.94-13-6.41s7.23,1.18,8.38,7.79,6.86,17,18.38,19.7c13,3,25.21-4.27,29.54-12.46a2.24,2.24,0,0,0-.71-2.92c-.88-.55-2.18-.6-3.88,1.42-3.41,4-7.15,7.88-13.75,8.94-5.68.91,2.53-4.66,4.59-6.33s4-5.18-.45-3.87S179.39,197.4,173.89,198.44Z" fill="#fff"/><path d="M132.1,179.54c-.77,1.62-8.26-.37-16.71-4.44s-14.67-8.7-13.89-10.31,8.26.37,16.71,4.45S132.88,177.93,132.1,179.54Z" fill="none" stroke="#fff" stroke-linecap="round" stroke-linejoin="round" stroke-width="0.87"/><path d="M101.51,164.78l-1,2.09c-.78,1.62,5.44,6.23,13.89,10.31s15.93,6.07,16.72,4.45l1-2.09" fill="none" stroke="#fff" stroke-linecap="round" stroke-linejoin="round" stroke-width="0.87"/><path d="M101.46,169l-14,34.43A6.12,6.12,0,0,0,89,210.2c2.75,2.51,7.64,5.65,15.52,6.6a6.16,6.16,0,0,0,6.07-3l18.54-31.47" fill="none" stroke="#fff" stroke-linecap="round" stroke-linejoin="round" stroke-width="0.87"/><path d="M115.89,198.43c2.47-5.14,2-10.48-1-11.93s-7.45,1.54-9.93,6.68-2.06,10.49.95,11.94S113.4,203.57,115.89,198.43Z" fill="#fff"/><path d="M138.58,154.73c-.05,1.89-7.88,2.92-17.49,2.29s-17.36-2.66-17.3-4.55,7.88-2.91,17.49-2.29S138.63,152.85,138.58,154.73Z" fill="none" stroke="#fff" stroke-linecap="round" stroke-linejoin="round" stroke-width="0.87"/><path d="M103.78,152.47l-.17,1.93a2.46,2.46,0,0,0,1.65,2.48c2.76,1.06,9.93,2.55,16.46,3,8,.57,13.12-.52,15.65-1.3a2.18,2.18,0,0,0,1.54-2.72l-.34-1.15" fill="none" stroke="#fff" stroke-linecap="round" stroke-linejoin="round" stroke-width="0.87"/><path d="M110.46,172s1.81-4.76,18.38-.3,15.46-8,19.75-7-5,13-12.87,11.41c0,0,6.51,5.84,3.1,7.66-3.93,2.11-2.6-5.15-7.5-4a1.57,1.57,0,0,1-.37,0C127.6,180.13,116.73,176,110.46,172Z" fill="#fff"/><path d="M135.71,176.14s-2.39-2.31-8-1.48" fill="none" stroke="#fff" stroke-linecap="round" stroke-linejoin="round" stroke-width="0.87"/><path d="M70.85,152.87l5.31,4s-.61,3.53,1.84,4.16,3.35-2.66,2.52-3.92c0,0,3.87-.45,3.49-3.36s-4.16-2.23-5.64-.67l-5-3.68S73.68,151.29,70.85,152.87Z" fill="#fff"/><path d="M72.43,151.5s2.71-2.93-.65-6.82-5.24-8.79-7.58-11.29c-4.45-4.74-13.49-7.28-17.11-.43-4,7.45.89,15.45,10.93,17.58,8.21,1.74,8.63,2.52,10.29,2.79A4.39,4.39,0,0,0,72.43,151.5Z" fill="none" stroke="#fff" stroke-linecap="round" stroke-linejoin="round" stroke-width="0.9"/><path d="M64.25,138a1.17,1.17,0,1,1-1.55-.6A1.18,1.18,0,0,1,64.25,138Z" fill="#fff"/><path d="M54.59,135.66a1.17,1.17,0,1,1-1.54-.59A1.17,1.17,0,0,1,54.59,135.66Z" fill="#fff"/><path d="M59.46,133.32a.77.77,0,1,1-1-.39A.76.76,0,0,1,59.46,133.32Z" fill="#fff"/><path d="M66.92,142.55a.58.58,0,1,1-.77-.3A.59.59,0,0,1,66.92,142.55Z" fill="#fff"/><path d="M105.58,263.78s1.43-5.23-3-6.53-8.89-1.44-16.6-9.41-6.4-14.24-13.72-12.15-8.23,15,5.36,26.92,35.41,12.8,36.72-.53C114.33,262.08,110.54,265.87,105.58,263.78Z" fill="none" stroke="#fff" stroke-linecap="round" stroke-linejoin="round" stroke-width="0.9"/><path d="M114.33,262.08s5.09-3.74,3.69-8.16c-1.56-4.94-4.78-5.41-9.48-4.77s-13.62-1.59-17.87-6.93-4-12.18-9.11-13.06-8.22,1.83-9.3,6.52" fill="none" stroke="#fff" stroke-linecap="round" stroke-linejoin="round" stroke-width="0.9"/><path d="M86.61,234.44a2.09,2.09,0,0,1,3.55.84c1.27,2.88,3.34,6.58,7.88,8.49s11.88.52,12.43,5.18" fill="none" stroke="#fff" stroke-linecap="round" stroke-linejoin="round" stroke-width="0.9"/><path d="M81.68,235.77c.73-1.51,2.75-2.1,4.56-2.25a2.89,2.89,0,0,1,1.58.19,1.91,1.91,0,0,1,.83,1.94c-.17,1.67-1.44,3.07-2.76,4.25-2.23,2-2.57,1.8-4.52,4a6.63,6.63,0,0,0-1.79,3.45,3.16,3.16,0,0,0,1.74,3.26,2.08,2.08,0,0,0,1.55.1,2.84,2.84,0,0,0,1-.72c2.13-2.09,2-2.31,4.17-4.4,1.68-1.64,3.58-3.39,6-3.61,1.08-.1,2.35.24,2.74,1.16a2.58,2.58,0,0,1-.58,2.34c-1.53,2.26-3.69,4.09-5.59,6.11a6.54,6.54,0,0,0-2,3.51c-.22,2.08,1.72,4,4,4.36A6.61,6.61,0,0,0,98.49,257c1.27-1.63,1.69-3.66,2.42-5.54.45-1.16,1.06-2.6,2.38-2.86,3.07-.58,3.55,2.15,3.8,3.85" fill="none" stroke="#fff" stroke-linecap="round" stroke-linejoin="round" stroke-width="2.23"/><g clip-path="url(#clip-path)"><path d="M69.4,30.23s.3-9.34-12.12-11c-13.87-1.91-19.1,11.39-19.49,13.9,0,0-6.05.75-9.24,4,0,0,6.82-2.34,10.28-.13,0,0,7.74,10.85,19.94,7.56S69.4,30.23,69.4,30.23Z" fill="#fff"/><path d="M69.24,28.44s7.29-6.74,19,2.47,15,10.29,23.18,12.24,14.75,12.32,8,16.21-12.58-3.51-15-8.8-4.56,6.13-10.08-2.48S83.82,26.8,69.47,31.63" fill="none" stroke="#fff" stroke-linecap="round" stroke-linejoin="round" stroke-width="0.87"/><path d="M68.57,26.31s9.12-7.71,18.78-.14,16.5,10.92,29.48,13.22S138.15,54.25,132.2,60s-12.81-.65-12.81-.65" fill="none" stroke="#fff" stroke-linecap="round" stroke-linejoin="round" stroke-width="0.87"/><path d="M87.35,26.17s7.17,4.52,13.51,0,9.67,1.82,5.78,4.68c0,0,5.25-.29,3.09,3.88,0,0,5.08-1.88,5.83,4.37" fill="none" stroke="#fff" stroke-linecap="round" stroke-linejoin="round" stroke-width="0.87"/><path d="M64.36,32.23a16.49,16.49,0,0,1-2.28,7.37" fill="none" stroke="#fff" stroke-linecap="round" stroke-linejoin="round" stroke-width="0.87"/><path d="M61,25.4a19.66,19.66,0,0,1-2.28,16" fill="none" stroke="#fff" stroke-linecap="round" stroke-linejoin="round" stroke-width="0.87"/><path d="M57.28,31.84a9.17,9.17,0,0,1,0,4,16,16,0,0,1-1.66,4.35" fill="none" stroke="#fff" stroke-linecap="round" stroke-linejoin="round" stroke-width="0.87"/><path d="M66.46,36.46a5.79,5.79,0,0,1-1.23,2" fill="none" stroke="#fff" stroke-linecap="round" stroke-linejoin="round" stroke-width="0.87"/><path d="M52.87,36.45a3.45,3.45,0,0,1-.24,2,13.46,13.46,0,0,1-1.9,3.44" fill="none" stroke="#fff" stroke-linecap="round" stroke-linejoin="round" stroke-width="0.87"/><path d="M49.47,38.31A5.91,5.91,0,0,1,48,40.8" fill="none" stroke="#fff" stroke-linecap="round" stroke-linejoin="round" stroke-width="0.87"/><path d="M46.54,37.42a9.49,9.49,0,0,1-1.06,2.65" fill="none" stroke="#fff" stroke-linecap="round" stroke-linejoin="round" stroke-width="0.87"/><path d="M310.77,89.21s-3.93-1.9-1.23-6.32c0,0-5.14-3.55-.81-10.4,0,0-4.26-3.51,1-7.48,0,0,1.07-2.1-2-3.36,0,0,3.4-4.83,7.83-1.45s2.83,6.52,2.83,6.52a4.75,4.75,0,0,1,5.68.16c3,2.23,2.27,3.75,2.27,3.75s4.21-2.32,6.38,3.56C332.71,74.18,327.45,86.74,310.77,89.21Z" fill="#fff"/><path d="M323.59,99.45l6.19,7.92a2.92,2.92,0,0,0,2.69,1.11,12.55,12.55,0,0,0,10-7.85,3,3,0,0,0-.25-2.78l-5.5-8.35s3.59-6.28-4-15.31c0,0-5.66,13-22.88,15.15C309.83,89.34,314.57,98.71,323.59,99.45Z" fill="none" stroke="#fff" stroke-linecap="round" stroke-linejoin="round" stroke-width="0.9"/><path d="M323.59,99.45s3-1.66,5.6-3.43" fill="none" stroke="#fff" stroke-linecap="round" stroke-linejoin="round" stroke-width="0.9"/><path d="M309.54,82.88s3.1.79,7-1.87" fill="none" stroke="#fff" stroke-linecap="round" stroke-linejoin="round" stroke-width="0.9"/><path d="M318.38,66.71,315.51,69" fill="none" stroke="#fff" stroke-linecap="round" stroke-linejoin="round" stroke-width="0.9"/><path d="M89.09,109.75c-1.34.47-2.31-.21-4.69-2.34s-6.05-3.57-10.49-.52-5.63-1.51-10.81-.73c-3.26.49-5,.77-5,.77l.44-1.54a179.89,179.89,0,0,1,22.5-2c4.93,0,12.67-.45,18.48,0,7.59.66,10.63.66,11-2.71,0,0,2.17,4.63-2.86,4.82s-5,3.92-8.15,2.12c-3.85-2.23-6.4-2.69-7.77-1C89.74,109,90.11,109.39,89.09,109.75Z" fill="#fff"/><path d="M77.07,72.11s-9.77,4.64-13.5,13c-3.35,7.53-5.48,13.74-5.06,19.69a4.06,4.06,0,0,1-3.35,4.34,5.07,5.07,0,0,1-3.19-.64,4.22,4.22,0,0,1-2.19-3.42c-.26-3.51.07-11.32,5.91-22.08,0,0,2.71-5.9,14.86-14.69C70.54,68.32,75.43,66.39,77.07,72.11Z" fill="none" stroke="#fff" stroke-linecap="round" stroke-linejoin="round" stroke-width="0.9"/><path d="M56.83,105s-2.75-2.86-5.67-.4" fill="none" stroke="#fff" stroke-linecap="round" stroke-linejoin="round" stroke-width="0.9"/><path d="M62.15,81.7a29.94,29.94,0,0,0-5.24,11.54" fill="none" stroke="#fff" stroke-linecap="round" stroke-linejoin="round" stroke-width="0.9"/><path d="M77.07,72.11s18.45,11.24,32.55,27.22a2.68,2.68,0,0,1-2.13,4.45c-7.52-.35-37.15-1.51-48.93,1.6" fill="none" stroke="#fff" stroke-linecap="round" stroke-linejoin="round" stroke-width="0.9"/><path d="M70,90.37c3,.47,5.7-.45,5.94-2.06s-2-3.28-5-3.75-5.7.45-6,2.06S67,89.9,70,90.37Z" fill="#fff"/><path d="M81.33,85.15c2.35,1.36,4.89,1.37,5.66,0s-.5-3.53-2.85-4.89-4.89-1.37-5.67,0S79,83.79,81.33,85.15Z" fill="#fff"/><path d="M92.23,97.27c2.32,1.34,4.9,1.2,5.77-.3s-.31-3.8-2.62-5.14-4.9-1.21-5.77.29S89.92,95.93,92.23,97.27Z" fill="#fff"/><path d="M77.07,98.92c2.9,0,5.25-1.16,5.25-2.58S80,93.75,77.07,93.75s-5.26,1.16-5.26,2.59S74.16,98.92,77.07,98.92Z" fill="#fff"/><path d="M246.08,76l5.72-3.46s3.06,1.87,4.55-.18-1.24-4.09-2.72-3.79c0,0,1-3.77-1.83-4.49s-3.61,3-2.71,5l-5.27,3.3S245.65,72.78,246.08,76Z" fill="#fff"/><path d="M245.38,74s-1.73-3.61-6.59-1.91S228.66,73.75,225.48,75c-6.06,2.39-11.75,9.87-6.72,15.77,5.49,6.43,14.72,4.88,20.41-3.69,4.64-7,5.53-7.1,6.38-8.55A4.33,4.33,0,0,0,245.38,74Z" fill="none" stroke="#fff" stroke-linecap="round" stroke-linejoin="round" stroke-width="0.9"/><path d="M229.75,76.65a1.17,1.17,0,1,1-1.12,1.22A1.17,1.17,0,0,1,229.75,76.65Z" fill="#fff"/><path d="M224.06,84.78A1.18,1.18,0,1,1,222.94,86,1.17,1.17,0,0,1,224.06,84.78Z" fill="#fff"/><path d="M223.67,79.39a.76.76,0,0,1,.79.74.77.77,0,0,1-1.53.06A.77.77,0,0,1,223.67,79.39Z" fill="#fff"/><path d="M235,75.86a.58.58,0,0,1,.61.56.59.59,0,1,1-1.17,0A.58.58,0,0,1,235,75.86Z" fill="#fff"/><path d="M204.07,52.13A4.07,4.07,0,1,0,200,48.06,4.07,4.07,0,0,0,204.07,52.13Z" fill="none" stroke="#fff" stroke-linecap="round" stroke-linejoin="round" stroke-width="0.87"/><path d="M37.09,54.19A4.07,4.07,0,1,1,33,50.13,4.07,4.07,0,0,1,37.09,54.19Z" fill="none" stroke="#fff" stroke-linecap="round" stroke-linejoin="round" stroke-width="0.87"/><path d="M126,102a4.07,4.07,0,0,1,8.13,0" fill="none" stroke="#fff" stroke-linecap="round" stroke-linejoin="round" stroke-width="0.87"/><path d="M252.59,44.79a2.8,2.8,0,1,1-2.8-2.79A2.79,2.79,0,0,1,252.59,44.79Z" fill="#fff"/><path d="M195.23,77.79a2.8,2.8,0,1,1-2.8-2.79A2.79,2.79,0,0,1,195.23,77.79Z" fill="#fff"/><path d="M363.08,104.79a2.8,2.8,0,1,1-2.79-2.79A2.79,2.79,0,0,1,363.08,104.79Z" fill="#fff"/><path d="M172.38,68.45a107.37,107.37,0,0,1-17.23,13.34l1,3.45s11.7-6.39,16.72-11.77Z" fill="none" stroke="#fff" stroke-linecap="round" stroke-linejoin="round" stroke-width="0.87"/><path d="M172.38,68.45,168.68,67A89,89,0,0,1,153,79.85l2.14,2" fill="none" stroke="#fff" stroke-linecap="round" stroke-linejoin="round" stroke-width="0.87"/><path d="M153,79.84l.73,3.57,2.43,1.83" fill="none" stroke="#fff" stroke-linecap="round" stroke-linejoin="round" stroke-width="0.87"/><path d="M279.69,55s1.65,2.67,3.94,14.66l3.59.31a128.18,128.18,0,0,0-3.52-13.28Z" fill="none" stroke="#fff" stroke-linecap="round" stroke-linejoin="round" stroke-width="0.9"/><path d="M279.69,55,277,57.92s1.7,1.79,4.05,13l2.59-1.3" fill="none" stroke="#fff" stroke-linecap="round" stroke-linejoin="round" stroke-width="0.9"/><path d="M281,71l3.59.61,2.59-1.6" fill="none" stroke="#fff" stroke-linecap="round" stroke-linejoin="round" stroke-width="0.9"/><path d="M366.11,41.12c3.61,2.16,2.39,5.8.82,6.66s-5.56,1.34-9.53-.68c-6.66-3.41-13.91-.21-13.91-.21S354.3,34.06,366.11,41.12Z" fill="none" stroke="#fff" stroke-linecap="round" stroke-linejoin="round" stroke-width="0.9"/><path d="M358.05,43.76s9.12,4.16,16.36.43" fill="none" stroke="#fff" stroke-linecap="round" stroke-linejoin="round" stroke-width="0.9"/></g></svg>